<svg xmlns="http://www.w3.org/2000/svg" viewBox="0 0 1024 1024" width="1024" height="1024">
  <defs>
    <radialGradient id="silkC" cx="45%" cy="32%" r="80%">
      <stop offset="0%" stop-color="#F9F4E6"/>
      <stop offset="100%" stop-color="#EFE6CD"/>
    </radialGradient>
    <clipPath id="canopyC">
      <ellipse cx="512" cy="500" rx="430" ry="438"/>
    </clipPath>
  </defs>

  <rect width="1024" height="1024" rx="170" fill="#F5EFE0"/>

  <!-- round canopy -->
  <ellipse cx="512" cy="500" rx="430" ry="438" fill="url(#silkC)"/>

  <g clip-path="url(#canopyC)">
    <!-- far peak, pale celadon -->
    <path d="M58,708 Q330,300 538,708 Z" fill="#A9C9B4"/>

    <!-- gold-outlined hill: rises between the two filled peaks, drawn in line only -->
    <path d="M366,756 Q560,366 776,756" fill="none" stroke="#C9A15E" stroke-width="7" stroke-linecap="round"/>

    <!-- near peak, deep malachite, overlapping the gold hill -->
    <path d="M426,780 Q688,392 1010,780 Z" fill="#2E6B5B"/>

    <!-- flat water band -->
    <rect x="48" y="744" width="930" height="226" fill="#BFD8C6" opacity="0.55"/>
    <path d="M250,798 H430 M540,832 H752" fill="none" stroke="#C9A15E" stroke-width="4" stroke-linecap="round" opacity="0.6"/>

    <!-- sun -->
    <circle cx="318" cy="264" r="34" fill="#C1440E"/>

    <!-- interior-palette accent dot: jade, low left (mirrors the app card) -->
    <circle cx="198" cy="624" r="14" fill="#A8C3A0"/>

    <!-- pink blossom cluster at the mountain foot, like variant A -->
    <g fill="#E8B4B8">
      <circle cx="350" cy="706" r="12"/>
      <circle cx="375" cy="719" r="12"/>
      <circle cx="336" cy="735" r="12"/>
      <circle cx="369" cy="748" r="12"/>
    </g>
  </g>

  <!-- rim -->
  <ellipse cx="512" cy="500" rx="430" ry="438" fill="none" stroke="#C9A15E" stroke-width="13"/>

  <!-- minimal stick, dark like the in-app handle -->
  <path d="M477 924 C490 910 503 904 512 904 C521 904 534 910 547 924 Z" fill="#3b3935"/>
  <rect x="495" y="920" width="34" height="78" rx="14" fill="#3b3935"/>
  <circle cx="512" cy="1005" r="14" fill="#C1440E"/>
</svg>
