<svg xmlns="http://www.w3.org/2000/svg" viewBox="0 0 1024 1024" width="1024" height="1024" role="img" aria-label="Tuanshan fan icon">
  <defs>
    <filter id="softShadow" x="-18%" y="-18%" width="136%" height="140%">
      <feDropShadow dx="0" dy="12" stdDeviation="18" flood-color="#a99c86" flood-opacity="0.23" />
    </filter>

    <radialGradient id="paperGlow" cx="50%" cy="42%" r="67%">
      <stop offset="0%" stop-color="#fffaf0" />
      <stop offset="68%" stop-color="#f7f0e2" />
      <stop offset="100%" stop-color="#eee2cc" />
    </radialGradient>

    <linearGradient id="rimGold" x1="0" y1="0" x2="1" y2="1">
      <stop offset="0%" stop-color="#d4c4a5" />
      <stop offset="45%" stop-color="#a88f61" />
      <stop offset="100%" stop-color="#d8c9aa" />
    </linearGradient>

    <linearGradient id="mountainPale" x1="0" y1="0" x2="1" y2="1">
      <stop offset="0%" stop-color="#dfe9d7" stop-opacity="0.92" />
      <stop offset="100%" stop-color="#b8cab4" stop-opacity="0.82" />
    </linearGradient>

    <linearGradient id="mountainJade" x1="0" y1="0" x2="1" y2="1">
      <stop offset="0%" stop-color="#cddfd6" stop-opacity="0.9" />
      <stop offset="100%" stop-color="#93b4a8" stop-opacity="0.86" />
    </linearGradient>

    <linearGradient id="handleFill" x1="0" y1="0" x2="1" y2="0">
      <stop offset="0%" stop-color="#2f2e29" />
      <stop offset="48%" stop-color="#55514a" />
      <stop offset="100%" stop-color="#22211e" />
    </linearGradient>

    <clipPath id="fanClip">
      <circle cx="512" cy="458" r="352" />
    </clipPath>
  </defs>

  <rect width="1024" height="1024" rx="170" fill="#F5EFE0" />
  <rect width="1024" height="1024" rx="170" fill="url(#paperGlow)" opacity="0.38" />

  <g filter="url(#softShadow)">
    <circle cx="512" cy="458" r="360" fill="url(#rimGold)" />
    <circle cx="512" cy="458" r="348" fill="url(#paperGlow)" stroke="#2B2B2B" stroke-width="3.2" opacity="0.88" />
    <circle cx="512" cy="458" r="337" fill="none" stroke="#e4d6bb" stroke-width="2" opacity="0.7" />

    <g clip-path="url(#fanClip)">
      <rect x="145" y="90" width="734" height="740" fill="#fff8ec" />

      <circle cx="454" cy="320" r="17" fill="#C1440E" />

      <g fill="none" stroke="#bd9851" stroke-width="3.2" stroke-linecap="round" stroke-linejoin="round" opacity="0.92">
        <path d="M206 438 H340" />
        <path d="M254 392 C235 392 222 402 222 417 C222 432 235 442 256 442 H401 C433 442 455 451 455 466 C455 480 432 489 399 489 H186" />
        <path d="M293 411 H451 C480 411 497 421 497 435 C497 449 478 458 445 458 H325" />

        <path d="M650 382 C694 380 742 380 786 380 C811 380 825 389 825 402 C825 414 813 420 792 420 H742" />
        <path d="M702 402 H862" />
        <path d="M739 454 C774 454 813 454 848 454" />
        <path d="M772 516 C806 516 838 516 869 516" />
        <path d="M720 558 H858" />
      </g>

      <g fill="none" stroke="#bd9851" stroke-width="3" stroke-linecap="round" stroke-linejoin="round" opacity="0.9">
        <path d="M242 640 C322 640 394 639 455 650 C497 657 514 673 514 689 C514 706 489 715 428 715 C343 715 300 731 300 754 C300 768 328 779 402 779 C502 779 570 779 646 788 C704 795 746 800 790 800" />
        <path d="M339 713 C414 713 484 716 550 731 C603 743 615 761 615 778 C615 797 585 808 520 808" />
        <path d="M423 762 C472 762 523 768 578 779" />
        <path d="M531 742 C587 742 636 742 686 747" />
        <path d="M693 731 C755 731 814 731 866 731" />
      </g>

      <g stroke-linecap="round" stroke-linejoin="round">
        <path d="M314 409 C345 409 367 397 386 373 C404 351 424 338 445 338 C468 338 488 356 509 409 Z"
              fill="url(#mountainPale)"
              stroke="#bd9851"
              stroke-width="2.5"
              opacity="0.7" />

        <path d="M571 548 C602 548 627 522 648 471 C671 414 697 346 733 335 C765 326 781 379 794 438 C806 493 836 526 878 528 C891 529 905 528 918 527 L918 572 C814 572 708 571 571 572 Z"
              fill="url(#mountainPale)"
              stroke="#3f4d3f"
              stroke-width="4" />

        <path d="M409 619 C438 600 460 589 491 590 C533 591 562 556 584 509 C603 468 624 438 657 437 C691 436 713 482 734 538 C752 585 778 609 816 612 C840 614 862 611 884 610 L884 657 C722 657 556 657 409 657 Z"
              fill="url(#mountainPale)"
              stroke="#3f4d3f"
              stroke-width="4" />

        <path d="M530 654 C562 626 591 614 631 617 C671 620 689 589 706 552 C725 510 746 490 776 495 C808 501 827 545 847 586 C866 626 895 648 930 648 L930 704 C780 704 652 703 530 703 Z"
              fill="url(#mountainJade)"
              stroke="#3f4d3f"
              stroke-width="4" />

        <path d="M134 607 C171 600 193 579 225 559 C251 542 277 537 302 548 C329 560 345 586 367 604 C389 622 425 625 465 625 L465 666 C356 666 238 667 134 667 Z"
              fill="url(#mountainPale)"
              stroke="#3f4d3f"
              stroke-width="4" />

        <path d="M690 779 C723 766 748 760 779 762 C807 764 830 777 850 792 C875 811 903 817 936 816 L936 850 C840 850 760 850 690 850 Z"
              fill="url(#mountainJade)"
              stroke="#3f4d3f"
              stroke-width="4" />
      </g>

      <g fill="none" stroke="#bd9851" stroke-width="2.7" stroke-linecap="round" stroke-linejoin="round" opacity="0.82">
        <path d="M480 590 C520 586 551 556 577 500" />
        <path d="M601 548 C635 543 662 515 688 461" />
        <path d="M694 414 C723 414 742 435 756 476" />
        <path d="M760 558 C795 558 821 578 838 615" />
        <path d="M237 622 C304 622 371 624 431 633" />
      </g>

      <g fill="#E8B4B8" opacity="0.95">
        <circle cx="288" cy="528" r="9" />
        <circle cx="305" cy="512" r="9" />
        <circle cx="321" cy="537" r="9" />
        <circle cx="305" cy="555" r="9" />
        <circle cx="338" cy="577" r="9" />
      </g>

      <g fill="#A8C3A0" opacity="0.95">
        <circle cx="418" cy="604" r="8" />
        <circle cx="438" cy="594" r="8" />
        <circle cx="456" cy="608" r="8" />
        <circle cx="719" cy="712" r="8" />
        <circle cx="742" cy="706" r="8" />
        <circle cx="733" cy="730" r="8" />
        <circle cx="763" cy="728" r="8" />
      </g>
    </g>

    <path d="M469 802 C484 781 501 774 512 774 C523 774 540 781 555 802 C564 815 558 833 540 841 H484 C466 833 460 815 469 802Z"
          fill="#2f2e29" />
    <rect x="495" y="828" width="34" height="134" rx="14" fill="url(#handleFill)" />
    <rect x="503" y="844" width="13" height="93" rx="7" fill="#fffaf0" opacity="0.12" />
  </g>
</svg>
