<svg xmlns="http://www.w3.org/2000/svg" viewBox="0 0 1024 1024" width="1024" height="1024" role="img" aria-label="Tuanshan fan icon">
  <defs>
    <filter id="shadow" x="-18%" y="-18%" width="136%" height="140%">
      <feDropShadow dx="0" dy="12" stdDeviation="16" flood-color="#b9af9d" flood-opacity="0.28" />
    </filter>

    <radialGradient id="fanFill" cx="50%" cy="42%" r="62%">
      <stop offset="0%" stop-color="#fffaf1" />
      <stop offset="68%" stop-color="#f7f1e6" />
      <stop offset="100%" stop-color="#eee3cf" />
    </radialGradient>

    <linearGradient id="mountainA" x1="0" y1="0" x2="1" y2="1">
      <stop offset="0%" stop-color="#dbe7d6" />
      <stop offset="100%" stop-color="#bfd2bf" />
    </linearGradient>

    <linearGradient id="mountainB" x1="0" y1="0" x2="1" y2="1">
      <stop offset="0%" stop-color="#c8ddd3" />
      <stop offset="100%" stop-color="#a8c4ba" />
    </linearGradient>

    <linearGradient id="stickFill" x1="0" y1="0" x2="1" y2="0">
      <stop offset="0%" stop-color="#2f2f2f" />
      <stop offset="46%" stop-color="#56524d" />
      <stop offset="100%" stop-color="#222222" />
    </linearGradient>

    <clipPath id="fanClip">
      <path d="M512 132
               C706 132 864 289 864 483
               C864 677 706 834 512 834
               C318 834 160 677 160 483
               C160 289 318 132 512 132Z" />
    </clipPath>
  </defs>

  <rect width="1024" height="1024" rx="170" fill="#F5EFE0" />

  <g filter="url(#shadow)">
    <path d="M512 132
             C706 132 864 289 864 483
             C864 677 706 834 512 834
             C318 834 160 677 160 483
             C160 289 318 132 512 132Z"
          fill="url(#fanFill)"
          stroke="#b89a5e"
          stroke-width="18"
          stroke-linejoin="round" />

    <path d="M512 158
             C692 158 838 304 838 483
             C838 663 692 808 512 808
             C332 808 186 663 186 483
             C186 304 332 158 512 158Z"
          fill="none"
          stroke="#5d5a55"
          stroke-width="3"
          opacity="0.86" />

    <g clip-path="url(#fanClip)">
      <rect x="145" y="120" width="734" height="730" fill="#F6F0E4" />

      <g opacity="0.22" stroke="#b89a5e" stroke-width="2.5">
        <path d="M512 834 L172 427" />
        <path d="M512 834 L235 268" />
        <path d="M512 834 L365 166" />
        <path d="M512 834 L512 132" />
        <path d="M512 834 L659 166" />
        <path d="M512 834 L789 268" />
        <path d="M512 834 L852 427" />
      </g>

      <circle cx="480" cy="330" r="18" fill="#C1440E" />

      <g fill="none" stroke="#c6a053" stroke-width="4" stroke-linecap="round" stroke-linejoin="round">
        <path d="M236 470 H374 C408 470 432 460 432 443 C432 428 410 419 374 419 H226 C201 419 187 432 187 448 C187 465 201 477 226 477 H319" />
        <path d="M570 397 C628 397 682 397 737 397 C766 397 787 388 787 374 C787 360 770 353 741 353 H628" />
        <path d="M702 578 H875" />
        <path d="M712 450 C758 450 794 450 840 450" />
        <path d="M795 374 C827 374 856 374 880 374" opacity="0.55" />
      </g>

      <g>
        <path d="M326 468 C354 468 377 455 392 434 C408 409 426 394 451 394 C474 394 497 415 518 468Z"
              fill="url(#mountainA)"
              stroke="#c9b45d"
              stroke-width="3"
              stroke-linejoin="round" />
        <path d="M615 458 C639 458 660 437 672 397 C686 355 707 330 742 328 C765 328 792 346 805 390 C815 425 840 458 867 458Z"
              fill="url(#mountainA)"
              stroke="#c9b45d"
              stroke-width="3"
              stroke-linejoin="round" />
      </g>

      <g fill="none" stroke="#586656" stroke-width="4" stroke-linecap="round" stroke-linejoin="round">
        <path d="M151 642 C184 640 213 620 242 596 C268 574 291 563 318 563 C353 563 377 585 399 620 C417 647 448 664 486 666"
              fill="url(#mountainA)" />
        <path d="M398 618 C432 616 458 590 481 550 C504 512 529 489 561 489 C594 489 622 516 641 557 C657 591 680 612 716 618"
              fill="url(#mountainA)" />
        <path d="M506 508 C545 506 581 477 616 415 C642 367 670 331 710 331 C752 331 782 371 798 439 C807 477 827 503 867 506"
              fill="url(#mountainA)" />
        <path d="M538 682 C571 680 600 655 631 611 C657 575 681 557 714 557 C748 557 776 583 794 625 C809 657 834 680 874 682"
              fill="url(#mountainB)" />
      </g>

      <g fill="none" stroke="#c6a053" stroke-width="3" stroke-linecap="round" stroke-linejoin="round">
        <path d="M484 666 C511 663 531 646 551 616 C576 578 600 556 628 552" />
        <path d="M556 618 C587 615 615 594 643 554 C663 525 687 506 710 505" />
        <path d="M617 505 C648 502 673 473 692 427 C706 394 724 374 748 371" />
        <path d="M702 558 C736 558 766 581 783 622" />
      </g>

      <g fill="none" stroke="#c6a053" stroke-width="4" stroke-linecap="round" stroke-linejoin="round">
        <path d="M226 730 C309 730 381 729 437 739 C475 746 490 759 490 774 C490 790 465 799 405 799 C320 799 279 814 279 839 C279 854 307 866 382 866 C496 866 562 864 637 874 C688 881 733 886 782 886" />
        <path d="M344 794 C405 794 467 794 533 808 C586 820 598 838 598 855 C598 876 570 886 505 886" />
        <path d="M177 696 C242 696 312 696 382 708" />
        <path d="M704 817 C764 817 818 817 878 817" />
      </g>

      <g fill="#E8B4B8">
        <circle cx="221" cy="588" r="10" />
        <circle cx="242" cy="601" r="10" />
        <circle cx="204" cy="619" r="10" />
        <circle cx="238" cy="636" r="10" />
      </g>

      <g fill="#A8C3A0">
        <circle cx="430" cy="660" r="9" />
        <circle cx="451" cy="651" r="9" />
        <circle cx="470" cy="668" r="9" />
        <circle cx="748" cy="752" r="9" />
        <circle cx="769" cy="769" r="9" />
        <circle cx="734" cy="783" r="9" />
        <circle cx="787" cy="789" r="9" />
      </g>
    </g>

    <path d="M470 834 C483 816 500 806 512 806 C524 806 541 816 554 834Z" fill="#3b3935" />
    <rect x="492" y="830" width="40" height="150" rx="17" fill="url(#stickFill)" />
    <rect x="501" y="848" width="22" height="105" rx="11" fill="#fff8ee" opacity="0.12" />
    <rect x="493" y="898" width="38" height="9" rx="4.5" fill="#C1440E" opacity="0.78" />
  </g>
</svg>
