<svg xmlns="http://www.w3.org/2000/svg" viewBox="0 0 1024 1024" width="1024" height="1024">
  <defs>
    <radialGradient id="silkC" cx="45%" cy="32%" r="80%">
      <stop offset="0%" stop-color="#F9F4E6"/>
      <stop offset="100%" stop-color="#EFE6CD"/>
    </radialGradient>
    <clipPath id="canopyC">
      <ellipse cx="512" cy="500" rx="380" ry="400"/>
    </clipPath>
  </defs>

  <rect width="1024" height="1024" rx="170" fill="#F5EFE0"/>

  <!-- round canopy -->
  <ellipse cx="512" cy="500" rx="380" ry="400" fill="url(#silkC)"/>

  <g clip-path="url(#canopyC)">
    <!-- far peak, pale celadon -->
    <path d="M120,700 Q330,330 520,700 Z" fill="#A9C9B4"/>

    <!-- gold-outlined hill: rises between the two filled peaks, drawn in line only -->
    <path d="M400,740 Q560,400 740,740" fill="none" stroke="#C9A15E" stroke-width="7" stroke-linecap="round"/>

    <!-- near peak, deep malachite, overlapping the gold hill -->
    <path d="M470,760 Q690,420 960,760 Z" fill="#2E6B5B"/>

    <!-- flat water band -->
    <rect x="100" y="740" width="830" height="200" fill="#BFD8C6" opacity="0.55"/>
    <path d="M280,790 H430 M540,820 H720" fill="none" stroke="#C9A15E" stroke-width="4" stroke-linecap="round" opacity="0.6"/>

    <!-- sun -->
    <circle cx="330" cy="300" r="30" fill="#C1440E"/>

    <!-- interior-palette accent dot: jade, low left (mirrors the app card) -->
    <circle cx="240" cy="620" r="13" fill="#A8C3A0"/>

    <!-- pink blossom cluster at the mountain foot, like variant A -->
    <g fill="#E8B4B8">
      <circle cx="365" cy="700" r="11"/>
      <circle cx="388" cy="712" r="11"/>
      <circle cx="352" cy="726" r="11"/>
      <circle cx="382" cy="738" r="11"/>
    </g>
  </g>

  <!-- rim -->
  <ellipse cx="512" cy="500" rx="380" ry="400" fill="none" stroke="#C9A15E" stroke-width="12"/>

  <!-- minimal stick, dark like the in-app handle -->
  <path d="M482 896 C492 884 504 878 512 878 C520 878 532 884 542 896 Z" fill="#3b3935"/>
  <rect x="496" y="894" width="32" height="78" rx="14" fill="#3b3935"/>
  <circle cx="512" cy="984" r="13" fill="#C1440E"/>
</svg>
