<svg xmlns="http://www.w3.org/2000/svg" viewBox="0 0 64 64" width="512" height="512">
  <rect x="4" y="4" width="56" height="56" rx="15" fill="#F0ECE4"/>
  <path d="M 37.653 12.843 L 37.418 13.434 L 37.181 14.020 L 36.939 14.604 L 36.693 15.186 L 36.444 15.766 L 36.190 16.343 L 35.932 16.918 L 35.671 17.490 L 35.405 18.060 L 35.135 18.627 L 34.862 19.192 L 34.584 19.755 L 34.302 20.315 L 34.017 20.872 L 33.727 21.427 L 33.433 21.979 L 33.135 22.528 L 32.833 23.075 L 32.527 23.619 L 32.217 24.160 L 31.922 24.708 L 31.641 25.262 L 31.355 25.814 L 31.065 26.363 L 30.770 26.911 L 30.471 27.456 L 30.168 27.998 L 29.860 28.539 L 29.547 29.077 L 29.230 29.613 L 28.909 30.146 L 28.583 30.678 L 28.252 31.206 L 27.917 31.733 L 27.578 32.256 L 27.233 32.778 L 26.884 33.297 L 26.531 33.813 L 26.172 34.327 L 25.810 34.838 L 25.442 35.347 L 25.070 35.854 L 24.693 36.357 L 24.311 36.858 L 23.924 37.357 L 23.533 37.853 L 23.137 38.346 L 22.736 38.836 L 22.330 39.324 L 21.920 39.809 L 21.504 40.292 L 21.084 40.771 L 20.659 41.248 L 20.228 41.722 L 19.793 42.193 L 19.353 42.662 L 18.908 43.128 L 18.458 43.590 L 18.003 44.050 L 17.543 44.507 L 17.077 44.961 L 16.607 45.413 L 16.132 45.861 L 15.642 46.315 L 15.552 46.432 L 15.478 46.531 L 15.406 46.627 L 15.334 46.721 L 15.263 46.812 L 15.192 46.900 L 15.123 46.985 L 15.055 47.067 L 14.988 47.147 L 14.922 47.224 L 14.857 47.298 L 14.793 47.370 L 14.730 47.439 L 14.669 47.506 L 14.608 47.569 L 14.549 47.631 L 14.492 47.689 L 14.436 47.746 L 14.381 47.800 L 14.327 47.851 L 14.276 47.900 L 14.225 47.947 L 14.177 47.991 L 14.130 48.034 L 14.084 48.074 L 14.040 48.112 L 13.998 48.148 L 13.958 48.182 L 13.919 48.215 L 13.882 48.245 L 13.847 48.275 L 13.813 48.302 L 13.781 48.328 L 13.750 48.353 L 13.721 48.377 L 13.693 48.399 L 13.666 48.421 L 13.641 48.442 L 13.616 48.461 L 13.593 48.480 L 13.569 48.500 L 13.540 48.553 L 13.508 48.605 L 13.474 48.655 L 13.436 48.703 L 13.396 48.750 L 13.351 48.794 L 13.303 48.836 L 13.252 48.874 L 13.197 48.910 L 13.138 48.941 L 13.075 48.969 L 13.009 48.993 L 12.939 49.011 L 12.866 49.025 L 12.801 49.022 L 12.735 49.013 L 12.668 48.999 L 12.599 48.981 L 12.528 48.959 L 12.457 48.931 L 12.385 48.898 L 12.312 48.860 L 12.236 48.813 L 11.644 49.187 L 11.661 49.287 L 11.684 49.391 L 11.711 49.494 L 11.742 49.597 L 11.777 49.699 L 11.816 49.800 L 11.860 49.901 L 11.908 50.000 L 11.960 50.099 L 12.006 50.210 L 12.059 50.320 L 12.118 50.429 L 12.183 50.537 L 12.254 50.643 L 12.332 50.747 L 12.416 50.849 L 12.506 50.948 L 12.602 51.044 L 12.705 51.137 L 12.813 51.226 L 12.926 51.311 L 13.045 51.392 L 13.168 51.468 L 13.300 51.506 L 13.433 51.537 L 13.568 51.564 L 13.704 51.585 L 13.842 51.602 L 13.980 51.614 L 14.118 51.621 L 14.258 51.624 L 14.398 51.623 L 14.538 51.617 L 14.678 51.607 L 14.819 51.593 L 14.960 51.575 L 15.101 51.553 L 15.242 51.527 L 15.384 51.498 L 15.525 51.464 L 15.666 51.428 L 15.808 51.387 L 15.949 51.343 L 16.091 51.296 L 16.232 51.245 L 16.374 51.191 L 16.516 51.133 L 16.657 51.072 L 16.799 51.008 L 16.941 50.941 L 17.083 50.871 L 17.224 50.797 L 17.366 50.720 L 17.508 50.640 L 17.651 50.557 L 17.793 50.471 L 17.935 50.381 L 18.077 50.289 L 18.220 50.193 L 18.363 50.095 L 18.505 49.993 L 18.648 49.888 L 18.791 49.780 L 18.918 49.685 L 19.398 49.199 L 19.881 48.701 L 20.359 48.200 L 20.831 47.696 L 21.297 47.190 L 21.757 46.681 L 22.212 46.169 L 22.661 45.654 L 23.105 45.137 L 23.543 44.617 L 23.976 44.095 L 24.403 43.570 L 24.824 43.043 L 25.240 42.512 L 25.651 41.980 L 26.056 41.445 L 26.455 40.907 L 26.850 40.368 L 27.238 39.825 L 27.622 39.281 L 28.000 38.734 L 28.373 38.185 L 28.740 37.633 L 29.102 37.080 L 29.459 36.524 L 29.811 35.965 L 30.157 35.405 L 30.499 34.843 L 30.835 34.278 L 31.166 33.712 L 31.491 33.143 L 31.812 32.572 L 32.128 32.000 L 32.438 31.425 L 32.744 30.849 L 33.044 30.270 L 33.340 29.690 L 33.630 29.107 L 33.916 28.523 L 34.197 27.937 L 34.472 27.350 L 34.743 26.760 L 35.009 26.169 L 35.252 25.568 L 35.471 24.956 L 35.685 24.343 L 35.894 23.730 L 36.098 23.115 L 36.297 22.499 L 36.490 21.883 L 36.680 21.265 L 36.864 20.646 L 37.043 20.027 L 37.218 19.406 L 37.388 18.785 L 37.553 18.162 L 37.713 17.539 L 37.869 16.915 L 38.020 16.290 L 38.167 15.665 L 38.309 15.039 L 38.446 14.411 L 38.579 13.784 L 38.707 13.157 Z" fill="#0047AB"/>
  <path d="M 38.233 13.064 L 38.240 13.728 L 38.251 14.392 L 38.266 15.056 L 38.286 15.719 L 38.309 16.380 L 38.336 17.041 L 38.368 17.700 L 38.403 18.357 L 38.441 19.013 L 38.483 19.667 L 38.529 20.320 L 38.579 20.970 L 38.631 21.619 L 38.688 22.265 L 38.747 22.910 L 38.810 23.552 L 38.876 24.191 L 38.945 24.828 L 39.017 25.463 L 39.092 26.095 L 39.170 26.724 L 39.250 27.351 L 39.334 27.974 L 39.464 28.584 L 39.598 29.190 L 39.735 29.792 L 39.874 30.391 L 40.016 30.985 L 40.159 31.576 L 40.305 32.162 L 40.453 32.745 L 40.603 33.323 L 40.755 33.897 L 40.908 34.466 L 41.064 35.031 L 41.221 35.591 L 41.380 36.147 L 41.541 36.698 L 41.703 37.244 L 41.866 37.785 L 42.031 38.321 L 42.197 38.852 L 42.365 39.378 L 42.533 39.899 L 42.703 40.414 L 42.874 40.924 L 43.045 41.428 L 43.218 41.927 L 43.392 42.420 L 43.566 42.907 L 43.741 43.389 L 43.916 43.864 L 44.093 44.334 L 44.269 44.797 L 44.447 45.255 L 44.624 45.706 L 44.802 46.150 L 44.980 46.589 L 45.159 47.021 L 45.337 47.446 L 45.516 47.865 L 45.695 48.277 L 45.874 48.682 L 46.100 49.173 L 46.373 49.603 L 46.467 49.746 L 46.563 49.885 L 46.661 50.023 L 46.760 50.158 L 46.862 50.292 L 46.984 50.405 L 47.120 50.503 L 47.258 50.598 L 47.396 50.689 L 47.535 50.776 L 47.674 50.860 L 47.815 50.941 L 47.957 51.017 L 48.099 51.090 L 48.242 51.159 L 48.386 51.224 L 48.531 51.285 L 48.676 51.342 L 48.822 51.395 L 48.968 51.443 L 49.115 51.487 L 49.263 51.527 L 49.410 51.563 L 49.558 51.594 L 49.706 51.620 L 49.854 51.641 L 50.002 51.658 L 50.149 51.670 L 50.296 51.677 L 50.442 51.680 L 50.588 51.677 L 50.732 51.669 L 50.875 51.657 L 51.017 51.639 L 51.157 51.616 L 51.295 51.589 L 51.431 51.557 L 51.564 51.520 L 51.695 51.478 L 51.824 51.432 L 51.950 51.382 L 52.072 51.327 L 52.192 51.268 L 52.308 51.205 L 52.422 51.139 L 52.522 51.044 L 52.617 50.944 L 52.706 50.841 L 52.791 50.736 L 52.870 50.630 L 52.944 50.521 L 53.013 50.412 L 53.077 50.300 L 53.137 50.188 L 53.193 50.075 L 53.244 49.960 L 53.294 49.849 L 53.347 49.744 L 53.396 49.637 L 53.442 49.529 L 53.486 49.421 L 53.526 49.311 L 53.562 49.202 L 53.118 48.798 L 53.019 48.837 L 52.924 48.868 L 52.830 48.896 L 52.738 48.918 L 52.647 48.936 L 52.558 48.950 L 52.465 48.953 L 52.372 48.947 L 52.282 48.936 L 52.196 48.921 L 52.112 48.901 L 52.032 48.876 L 51.956 48.848 L 51.884 48.816 L 51.816 48.780 L 51.752 48.741 L 51.693 48.698 L 51.638 48.655 L 51.595 48.635 L 51.555 48.612 L 51.517 48.589 L 51.481 48.563 L 51.447 48.536 L 51.416 48.508 L 51.386 48.479 L 51.359 48.448 L 51.333 48.417 L 51.309 48.385 L 51.286 48.352 L 51.264 48.318 L 51.243 48.283 L 51.223 48.248 L 51.204 48.212 L 51.185 48.175 L 51.166 48.138 L 51.148 48.099 L 51.130 48.060 L 51.112 48.019 L 51.094 47.978 L 51.075 47.935 L 51.057 47.892 L 51.038 47.847 L 51.018 47.800 L 50.999 47.752 L 50.978 47.703 L 50.958 47.652 L 50.936 47.599 L 50.914 47.544 L 50.892 47.488 L 50.869 47.429 L 50.846 47.369 L 50.822 47.306 L 50.797 47.242 L 50.772 47.175 L 50.747 47.106 L 50.721 47.035 L 50.695 46.961 L 50.655 46.897 L 50.596 46.847 L 50.535 46.793 L 50.473 46.735 L 50.409 46.674 L 50.345 46.609 L 50.460 46.827 L 50.322 46.561 L 50.136 46.194 L 49.949 45.820 L 49.762 45.439 L 49.574 45.050 L 49.386 44.654 L 49.198 44.251 L 49.010 43.841 L 48.821 43.424 L 48.633 43.001 L 48.445 42.570 L 48.257 42.134 L 48.069 41.690 L 47.881 41.241 L 47.694 40.785 L 47.508 40.323 L 47.322 39.855 L 47.136 39.381 L 46.952 38.901 L 46.768 38.415 L 46.585 37.924 L 46.403 37.428 L 46.222 36.925 L 46.042 36.418 L 45.863 35.905 L 45.686 35.387 L 45.510 34.864 L 45.335 34.336 L 45.162 33.804 L 44.990 33.266 L 44.820 32.724 L 44.652 32.177 L 44.486 31.626 L 44.321 31.070 L 44.158 30.511 L 43.998 29.946 L 43.839 29.378 L 43.682 28.806 L 43.528 28.230 L 43.376 27.650 L 43.225 27.067 L 43.032 26.490 L 42.841 25.910 L 42.653 25.325 L 42.468 24.736 L 42.285 24.144 L 42.104 23.548 L 41.927 22.948 L 41.752 22.345 L 41.581 21.739 L 41.412 21.129 L 41.247 20.516 L 41.084 19.900 L 40.925 19.281 L 40.769 18.659 L 40.616 18.034 L 40.467 17.406 L 40.322 16.775 L 40.180 16.142 L 40.042 15.506 L 39.907 14.867 L 39.777 14.227 L 39.650 13.583 L 39.527 12.936 Z" fill="#0047AB"/>
  <path d="M 25.630 39.338 L 25.927 39.281 L 26.224 39.226 L 26.524 39.175 L 26.825 39.126 L 27.128 39.080 L 27.433 39.037 L 27.740 38.996 L 28.049 38.957 L 28.360 38.921 L 28.672 38.887 L 28.985 38.855 L 29.300 38.826 L 29.617 38.798 L 29.935 38.772 L 30.254 38.748 L 30.575 38.726 L 30.897 38.705 L 31.220 38.687 L 31.544 38.669 L 31.869 38.653 L 32.194 38.639 L 32.521 38.626 L 32.849 38.614 L 33.177 38.603 L 33.506 38.594 L 33.835 38.585 L 34.165 38.578 L 34.495 38.571 L 34.826 38.565 L 35.157 38.560 L 35.489 38.555 L 35.820 38.551 L 36.152 38.548 L 36.483 38.545 L 36.815 38.542 L 37.147 38.540 L 37.478 38.537 L 37.809 38.535 L 38.139 38.520 L 38.468 38.496 L 38.797 38.471 L 39.125 38.447 L 39.452 38.422 L 39.779 38.397 L 40.105 38.371 L 40.430 38.345 L 40.755 38.319 L 41.078 38.292 L 41.400 38.264 L 41.721 38.235 L 42.041 38.205 L 42.360 38.174 L 42.677 38.143 L 42.993 38.110 L 43.307 38.076 L 43.620 38.041 L 43.931 38.004 L 44.240 37.966 L 44.548 37.926 L 44.853 37.885 L 45.157 37.842 L 45.459 37.797 L 45.758 37.751 L 46.048 37.703 L 46.202 37.679 L 46.362 37.652 L 46.519 37.625 L 46.674 37.598 L 46.827 37.570 L 46.977 37.541 L 47.125 37.512 L 47.271 37.482 L 47.415 37.452 L 47.556 37.421 L 47.695 37.389 L 47.832 37.356 L 47.966 37.320 L 48.095 37.268 L 48.221 37.215 L 48.345 37.162 L 48.466 37.109 L 48.585 37.054 L 48.702 36.999 L 48.817 36.943 L 48.929 36.886 L 49.039 36.828 L 49.147 36.770 L 49.252 36.711 L 49.355 36.651 L 49.456 36.590 L 49.555 36.528 L 49.651 36.466 L 49.745 36.403 L 49.837 36.338 L 49.927 36.273 L 50.014 36.208 L 50.100 36.141 L 50.183 36.074 L 50.263 36.005 L 50.342 35.936 L 50.418 35.866 L 50.492 35.796 L 50.563 35.724 L 50.633 35.652 L 50.700 35.580 L 50.770 35.512 L 50.837 35.444 L 50.903 35.375 L 50.967 35.305 L 51.028 35.234 L 51.088 35.162 L 51.146 35.090 L 51.202 35.016 L 51.256 34.942 L 51.308 34.867 L 51.358 34.792 L 51.407 34.715 L 51.454 34.638 L 51.498 34.561 L 51.542 34.482 L 51.583 34.403 L 51.623 34.323 L 51.662 34.242 L 51.698 34.161 L 51.734 34.079 L 51.767 33.996 L 51.800 33.912 L 51.830 33.830 L 51.334 33.570 L 51.286 33.636 L 51.238 33.699 L 51.189 33.761 L 51.140 33.821 L 51.090 33.879 L 51.039 33.936 L 50.988 33.991 L 50.935 34.045 L 50.882 34.097 L 50.828 34.148 L 50.774 34.198 L 50.718 34.246 L 50.662 34.293 L 50.605 34.338 L 50.546 34.383 L 50.487 34.426 L 50.428 34.468 L 50.367 34.509 L 50.305 34.548 L 50.241 34.587 L 50.177 34.625 L 50.112 34.661 L 50.045 34.697 L 49.973 34.725 L 49.900 34.753 L 49.826 34.779 L 49.750 34.804 L 49.673 34.829 L 49.595 34.852 L 49.516 34.875 L 49.435 34.896 L 49.353 34.917 L 49.269 34.937 L 49.184 34.957 L 49.098 34.975 L 49.009 34.993 L 48.919 35.011 L 48.827 35.027 L 48.734 35.043 L 48.638 35.058 L 48.541 35.073 L 48.442 35.087 L 48.340 35.101 L 48.237 35.114 L 48.131 35.126 L 48.024 35.138 L 47.914 35.149 L 47.802 35.160 L 47.688 35.170 L 47.571 35.179 L 47.452 35.188 L 47.334 35.211 L 47.215 35.237 L 47.092 35.263 L 46.967 35.288 L 46.839 35.313 L 46.708 35.337 L 46.574 35.361 L 46.438 35.384 L 46.298 35.407 L 46.156 35.430 L 46.011 35.452 L 45.863 35.474 L 45.704 35.497 L 45.416 35.541 L 45.132 35.583 L 44.845 35.623 L 44.555 35.661 L 44.263 35.698 L 43.968 35.733 L 43.671 35.768 L 43.371 35.800 L 43.068 35.832 L 42.764 35.862 L 42.457 35.892 L 42.148 35.920 L 41.837 35.947 L 41.524 35.974 L 41.209 35.999 L 40.893 36.024 L 40.575 36.048 L 40.255 36.072 L 39.934 36.095 L 39.611 36.118 L 39.287 36.140 L 38.962 36.162 L 38.636 36.184 L 38.308 36.205 L 37.980 36.227 L 37.651 36.257 L 37.322 36.301 L 36.993 36.345 L 36.663 36.389 L 36.332 36.434 L 36.001 36.478 L 35.669 36.524 L 35.338 36.569 L 35.006 36.616 L 34.674 36.663 L 34.342 36.711 L 34.010 36.759 L 33.679 36.809 L 33.348 36.859 L 33.017 36.911 L 32.687 36.964 L 32.357 37.018 L 32.028 37.073 L 31.700 37.129 L 31.372 37.188 L 31.046 37.247 L 30.721 37.308 L 30.396 37.371 L 30.074 37.435 L 29.752 37.502 L 29.432 37.570 L 29.113 37.640 L 28.797 37.712 L 28.481 37.787 L 28.168 37.863 L 27.857 37.942 L 27.548 38.023 L 27.240 38.107 L 26.935 38.193 L 26.633 38.281 L 26.333 38.372 L 26.035 38.466 L 25.740 38.563 L 25.450 38.662 Z" fill="#0047AB"/>
  <circle cx="25.540" cy="39.000" r="0.750" fill="#0047AB"/>
  <circle cx="45.876" cy="36.600" r="0.620" fill="#0047AB"/>
  <circle cx="51.582" cy="33.700" r="0.300" fill="#0047AB"/>
  <path d="M 51.582 33.700 L 51.839 33.610 L 52.062 33.503 L 52.274 33.391 L 52.479 33.274 L 52.678 33.155 L 52.871 33.032 L 53.059 32.907 L 53.242 32.780 L 53.420 32.649 L 53.594 32.517 L 53.762 32.381 L 53.925 32.243 L 54.082 32.103 L 54.235 31.959 L 54.382 31.813 L 54.523 31.663 L 54.658 31.511 L 54.788 31.356 L 54.912 31.198 L 55.030 31.037 L 55.142 30.872 L 55.247 30.705 L 55.347 30.534 L 55.440 30.360 L 55.528 30.183 L 55.609 30.003 L 55.684 29.820 L 55.753 29.633 L 55.816 29.444 L 55.873 29.251 L 55.924 29.055 L 55.969 28.857 L 56.009 28.655 L 56.043 28.451 L 56.071 28.243 L 56.094 28.033 L 56.112 27.820 L 56.125 27.605 L 56.132 27.387 L 56.135 27.166 L 56.132 26.943 L 56.125 26.717 L 56.112 26.489 L 56.095 26.258 L 56.071 26.023 L 56.039 25.785 L 55.997 25.541 L 55.921 25.280 L 55.921 25.280 L 55.664 25.370 L 55.441 25.477 L 55.229 25.589 L 55.024 25.706 L 54.825 25.825 L 54.632 25.948 L 54.444 26.073 L 54.261 26.200 L 54.082 26.331 L 53.909 26.463 L 53.741 26.599 L 53.578 26.737 L 53.420 26.877 L 53.268 27.021 L 53.121 27.167 L 52.980 27.317 L 52.844 27.469 L 52.715 27.624 L 52.591 27.782 L 52.473 27.943 L 52.361 28.108 L 52.256 28.275 L 52.156 28.446 L 52.062 28.620 L 51.975 28.797 L 51.894 28.977 L 51.819 29.160 L 51.750 29.347 L 51.687 29.536 L 51.630 29.729 L 51.579 29.925 L 51.534 30.123 L 51.494 30.325 L 51.460 30.529 L 51.432 30.737 L 51.409 30.947 L 51.391 31.160 L 51.378 31.375 L 51.371 31.593 L 51.368 31.814 L 51.370 32.037 L 51.378 32.263 L 51.390 32.491 L 51.408 32.722 L 51.432 32.957 L 51.464 33.195 L 51.506 33.439 L 51.582 33.700 L 51.582 33.700" fill="none" stroke="#0047AB" stroke-width="0.8" stroke-linejoin="round" stroke-linecap="round"/>
  <path d="M 51.582 33.700 L 55.921 25.280" fill="none" stroke="#0047AB" stroke-width="0.42" stroke-linecap="round"/>
  <rect x="5.2" y="5.2" width="53.6" height="53.6" rx="13.8" fill="none" stroke="#0047AB" stroke-width="2.1"/>
</svg>